<!-- Created with Inkscape (http://www.inkscape.org/) -->
<svg xmlns:rdf="http://www.w3.org/1999/02/22-rdf-syntax-ns#" xmlns="http://www.w3.org/2000/svg" height="300" width="300" version="1.1" xmlns:cc="http://creativecommons.org/ns#" xmlns:dc="http://purl.org/dc/elements/1.1/">
<metadata>
<rdf:RDF>
<cc:Work rdf:about="">
<dc:format>image/svg+xml</dc:format>
<dc:type rdf:resource="http://purl.org/dc/dcmitype/StillImage"/>
<dc:title/>
</cc:Work>
</rdf:RDF>
</metadata>
<g transform="translate(-220.00001,-322.36047)">
<path transform="translate(59.999995,152.36218)" fill="#6C6" d="m460,320c0,82.7-66.9,150-150,150"/>
<path transform="matrix(0,-1,1,0,50.001704,782.36047)" fill="#6C6" d="m460,320c0,82.7-66.9,150-150,150"/>
<path fill="#6C6" d="m460,320c0,82.7-66.9,150-150,150" transform="matrix(-1,0,0,-1,680.4929,792.35795)"/>
<path transform="matrix(0,1,-1,0,689.99829,162.36047)" fill="#6C6" d="m460,320c0,82.7-66.9,150-150,150"/>
<path d="M75.2,225,0.572,150,75.4,75.4,150,0.604l74.7,74.7,74.7,74.7-74.8,74.8c-41.1,41.1-74.8,74.8-74.9,74.8-0.0877,0-33.7-33.6-74.8-74.6z" transform="translate(220.00001,322.36047)" stroke="#FFF" stroke-width="0.31779661999999997" fill="#FFF"/>
<path d="M75.2,225,0.572,150,75.4,75.4,150,0.604,225,75.4l74.8,74.8-74.8,74.7c-41.1,41.1-74.9,74.7-75,74.7-0.105,0-33.8-33.6-74.8-74.6z" transform="translate(220.00001,322.36047)" stroke="#FFF" stroke-width="0.31779662" fill="#FFF"/>
</g>
</svg>
